<svg t="1650199186133" class="icon" viewBox="0 0 1024 1024" version="1.1" xmlns="http://www.w3.org/2000/svg" p-id="3460" width="128" height="128"><path d="M1024 128 0 128 0 0 1024 0 1024 128Z" p-id="3461"></path><path d="M640 384 0 384 0 256 640 256 640 384Z" p-id="3462"></path><path d="M1024 768 0 768 0 640 1024 640 1024 768Z" p-id="3463"></path><path d="M768 1024 0 1024 0 896 768 896 768 1024Z" p-id="3464"></path><path d="M1024 960c0 35.328-28.736 64-64 64-35.488 0-64.128-28.672-64.128-64s28.64-64 64.128-64C995.264 896 1024 924.672 1024 960z" p-id="3465"></path></svg>